<?xml version="1.0" standalone="no"?>
<!DOCTYPE svg PUBLIC "-//W3C//DTD SVG 1.0//EN" "http://www.w3.org/TR/2001/REC-SVG-20010904/DTD/svg10.dtd">
<svg xmlns="http://www.w3.org/2000/svg" xmlns:xlink="http://www.w3.org/1999/xlink" id="body_1" width="638" height="580">

<g transform="matrix(0.7505883 0 0 0.7503235 0 0)">
    <path transform="matrix(1 0 0 1 0 0)"  d="M161.688 810C 131.778 810 84.2895 793.647 53.6476 753.861C 18.4888 707.974 15.803 636.214 44.98 582.638C 70.4946 535.775 113.344 515.76 121.89 511.855C 219.92 468.164 293.045 552.616 344.074 514.296C 398.278 473.534 344.074 356.863 427.21 270.214C 431.117 266.187 437.221 259.597 446.987 252.396C 524.141 196.013 630.228 222.74 648.662 227.378C 674.543 233.846 733.629 249.711 780.386 304.996C 791.495 318.176 832.88 367.114 833.734 434.359C 834.589 503.19 788.809 535.164 808.098 567.505C 824.456 594.72 860.348 578.855 890.013 612.172C 923.219 649.395 911.011 706.265 909.912 711.391C 899.169 758.255 860.714 795.721 810.661 809.756C 594.337 810 378.012 810 161.688 810z" stroke="none" fill="#A8DDEA" fill-rule="nonzero" />
    <path transform="matrix(1 0 0 1 0 0)"  d="M292.664 684.95C 292.664 689.451 296.314 693.099 300.817 693.099C 305.319 693.099 308.969 689.451 308.969 684.95C 308.969 680.449 305.319 676.801 300.817 676.801C 296.314 676.801 292.664 680.449 292.664 684.95zM295.381 684.95C 295.381 681.949 297.815 679.517 300.816 679.517C 303.818 679.517 306.251 681.949 306.251 684.95C 306.251 687.95 303.818 690.383 300.816 690.383C 297.815 690.383 295.381 687.95 295.381 684.95z" stroke="none" fill="#FFFFFF" fill-rule="nonzero" />
    <path transform="matrix(1 0 0 1 0 0)"  d="M619.531 721.122C 619.531 725.623 623.181 729.272 627.684 729.272C 632.186 729.272 635.837 725.623 635.837 721.122C 635.837 716.622 632.186 712.973 627.684 712.973C 623.181 712.973 619.531 716.622 619.531 721.122zM622.248 721.122C 622.248 718.122 624.682 715.689 627.684 715.689L627.684 715.689L627.684 715.695C 630.683 715.695 633.116 718.124 633.119 721.122C 633.119 724.123 630.685 726.555 627.684 726.555C 624.682 726.555 622.248 724.123 622.248 721.122z" stroke="none" fill="#FFFFFF" fill-rule="nonzero" />
    <path transform="matrix(1 0 0 1 0 0)"  d="M402.263 727.913C 402.263 732.414 405.913 736.063 410.415 736.063C 412.578 736.063 414.651 735.204 416.18 733.676C 417.709 732.148 418.568 730.075 418.568 727.913C 418.568 723.413 414.918 719.764 410.415 719.764C 405.913 719.764 402.263 723.413 402.263 727.913zM404.98 727.913C 404.98 724.913 407.414 722.48 410.415 722.48C 413.417 722.48 415.85 724.913 415.85 727.913C 415.85 730.914 413.417 733.346 410.415 733.346C 407.414 733.346 404.98 730.914 404.98 727.913z" stroke="none" fill="#FFFFFF" fill-rule="nonzero" />
    <path transform="matrix(1 0 0 1 0 0)"  d="M89.554 481.823C 89.554 486.324 93.204 489.973 97.7066 489.973C 102.209 489.973 105.859 486.324 105.859 481.823C 105.859 477.322 102.209 473.674 97.7066 473.674C 93.204 473.674 89.554 477.322 89.554 481.823zM92.2715 481.823C 92.2715 478.823 94.7049 476.39 97.7066 476.39L97.7066 476.39L97.7066 476.396C 100.706 476.396 103.139 478.825 103.142 481.823C 103.142 484.824 100.708 487.256 97.7066 487.256C 94.7049 487.256 92.2715 484.824 92.2715 481.823z" stroke="none" fill="#FFFFFF" fill-rule="nonzero" />
    <path transform="matrix(1 0 0 1 0 0)"  d="M695.547 502.017C 695.547 506.518 699.197 510.167 703.7 510.167C 708.202 510.167 711.852 506.518 711.852 502.017C 711.852 497.517 708.202 493.868 703.7 493.868C 699.197 493.868 695.547 497.517 695.547 502.017zM698.264 502.017C 698.264 499.017 700.697 496.584 703.699 496.584C 706.701 496.584 709.134 499.017 709.134 502.017C 709.134 505.018 706.701 507.45 703.699 507.45C 700.697 507.45 698.264 505.018 698.264 502.017z" stroke="none" fill="#FFFFFF" fill-rule="nonzero" />
    <path transform="matrix(1 0 0 1 0 0)"  d="M323.405 317.46C 323.405 321.961 327.055 325.61 331.558 325.61C 336.06 325.61 339.71 321.961 339.71 317.46C 339.71 312.96 336.06 309.311 331.558 309.311C 327.055 309.311 323.405 312.96 323.405 317.46zM326.123 317.461C 326.123 314.46 328.556 312.028 331.558 312.028L331.558 312.028L331.558 312.033C 334.558 312.033 336.99 314.462 336.993 317.461C 336.993 320.461 334.56 322.893 331.558 322.893C 328.556 322.893 326.123 320.461 326.123 317.461z" stroke="none" fill="#FFFFFF" fill-rule="nonzero" />
    <path transform="matrix(1 0 0 1 0 0)"  d="M181.342 687.96C 181.342 692.461 184.992 696.109 189.495 696.109C 193.998 696.109 197.648 692.461 197.648 687.96C 197.648 683.459 193.998 679.81 189.495 679.81C 184.992 679.81 181.342 683.459 181.342 687.96zM184.06 687.959C 184.06 684.959 186.493 682.526 189.495 682.526C 192.496 682.526 194.93 684.959 194.93 687.959C 194.93 690.96 192.496 693.392 189.495 693.392C 186.493 693.392 184.06 690.96 184.06 687.959z" stroke="none" fill="#FFFFFF" fill-rule="nonzero" />
    <path transform="matrix(1 0 0 1 0 0)"  d="M567.523 602.885L362.701 602.885L362.701 656.818L567.523 656.818C 582.403 656.776 594.456 644.729 594.497 629.854C 594.456 614.979 582.404 602.93 567.523 602.885z" stroke="none" fill="#FFFFFF" fill-rule="nonzero" fill-opacity="0.6941177" />
    <path transform="matrix(1 0 0 1 0 0)"  d="M157.884 602.885C 143.002 602.93 130.949 614.978 130.905 629.854C 130.949 644.729 143.003 656.776 157.884 656.818L157.884 656.818L362.701 656.818L362.701 602.885L157.884 602.885z" stroke="none" fill="#FFFFFF" fill-rule="nonzero" fill-opacity="0.627451" />
    <path transform="matrix(1 0 0 1 0 0)"  d="M785.433 361.175L670.609 361.175C 669.288 361.181 668.218 362.252 668.212 363.574L668.212 363.574L668.212 462.356L698.619 431.926L785.433 431.926C 786.753 431.923 787.822 430.853 787.825 429.532L787.825 429.532L787.825 363.574C 787.822 362.252 786.754 361.181 785.433 361.175z" stroke="none" fill="#FFFFFF" fill-rule="nonzero" fill-opacity="0.2431373" />
    <path transform="matrix(1 0 0 1 0 0)"  d="M681.34 382.2354C 681.34 380.6175 682.6516 379.306 684.2694 379.306L684.2694 379.306L771.7693 379.306C 773.3871 379.306 774.6986 380.6175 774.6986 382.2354C 774.6986 383.8532 773.3871 385.1647 771.7693 385.1647L771.7693 385.1647L684.2694 385.1647C 682.6516 385.1647 681.34 383.8532 681.34 382.2354z" stroke="none" fill="#17E59E" fill-rule="nonzero" />
    <path transform="matrix(1 0 0 1 0 0)"  d="M681.34 396.2104C 681.34 394.5925 682.6516 393.281 684.2694 393.281L684.2694 393.281L761.061 393.281C 762.6788 393.281 763.9904 394.5925 763.9904 396.2104C 763.9904 397.8282 762.6788 399.1397 761.061 399.1397L761.061 399.1397L684.2694 399.1397C 682.6516 399.1397 681.34 397.8282 681.34 396.2104z" stroke="none" fill="#17E59E" fill-rule="nonzero" />
    <path transform="matrix(1 0 0 1 0 0)"  d="M681.34 410.1794C 681.34 408.5615 682.6516 407.25 684.2694 407.25L684.2694 407.25L744.3298 407.25C 745.9476 407.25 747.2592 408.5615 747.2592 410.1794C 747.2592 411.7972 745.9476 413.1087 744.3298 413.1087L744.3298 413.1087L684.2694 413.1087C 682.6516 413.1087 681.34 411.7972 681.34 410.1794z" stroke="none" fill="#17E59E" fill-rule="nonzero" />
    <path transform="matrix(1 0 0 1 0 0)"  d="M281.09 335.472L222.748 335.472C 222.077 335.475 221.533 336.019 221.531 336.69L221.531 336.69L221.531 386.884L236.979 371.435L281.09 371.435C 281.762 371.435 282.307 370.889 282.307 370.216L282.307 370.216L282.307 336.69C 282.307 336.017 281.762 335.472 281.09 335.472z" stroke="none" fill="#FFFFFF" fill-rule="nonzero" fill-opacity="0.2431373" />
    <path transform="matrix(1 0 0 1 0 0)"  d="M228.2 346.1748C 228.2 345.3531 228.8661 344.687 229.6878 344.687L229.6878 344.687L274.1498 344.687C 274.9715 344.687 275.6376 345.3531 275.6376 346.1748C 275.6376 346.9965 274.9715 347.6626 274.1498 347.6626L274.1498 347.6626L229.6878 347.6626C 228.8661 347.6626 228.2 346.9965 228.2 346.1748z" stroke="none" fill="#FFFFFF" fill-rule="nonzero" />
    <path transform="matrix(1 0 0 1 0 0)"  d="M228.2 353.2738C 228.2 352.4521 228.8661 351.786 229.6878 351.786L229.6878 351.786L268.7086 351.786C 269.5303 351.786 270.1964 352.4521 270.1964 353.2738C 270.1964 354.0955 269.5303 354.7616 268.7086 354.7616L268.7086 354.7616L229.6878 354.7616C 228.8661 354.7616 228.2 354.0955 228.2 353.2738z" stroke="none" fill="#FFFFFF" fill-rule="nonzero" />
    <path transform="matrix(1 0 0 1 0 0)"  d="M228.2 360.3728C 228.2 359.5511 228.8661 358.885 229.6878 358.885L229.6878 358.885L260.2072 358.885C 261.0289 358.885 261.695 359.5511 261.695 360.3728C 261.695 361.1945 261.0289 361.8606 260.2072 361.8606L260.2072 361.8606L229.6878 361.8606C 228.8661 361.8606 228.2 361.1945 228.2 360.3728z" stroke="none" fill="#FFFFFF" fill-rule="nonzero" />
    <path transform="matrix(1 0 0 1 0 0)"  d="M268.191 262.904L191.368 262.904C 190.467 262.904 189.737 263.635 189.737 264.536L189.737 264.536L189.737 330.598L210.078 310.242L268.191 310.242C 269.081 310.242 269.807 309.528 269.822 308.637L269.822 308.637L269.822 264.509C 269.807 263.618 269.081 262.904 268.191 262.904z" stroke="none" fill="#FFFFFF" fill-rule="nonzero" fill-opacity="0.2431373" />
    <path transform="matrix(1 0 0 1 0 0)"  d="M198.548 276.9961C 198.548 275.913 199.426 275.035 200.5091 275.035L200.5091 275.035L259.0488 275.035C 260.1319 275.035 261.0099 275.913 261.0099 276.9961C 261.0099 278.0791 260.1319 278.9571 259.0488 278.9571L259.0488 278.9571L200.5091 278.9571C 199.426 278.9571 198.548 278.0791 198.548 276.9961z" stroke="none" fill="#17E59E" fill-rule="nonzero" />
    <path transform="matrix(1 0 0 1 0 0)"  d="M198.548 286.347C 198.548 285.264 199.426 284.386 200.5091 284.386L200.5091 284.386L251.8846 284.386C 252.9677 284.386 253.8457 285.264 253.8457 286.347C 253.8457 287.4301 252.9677 288.3081 251.8846 288.3081L251.8846 288.3081L200.5091 288.3081C 199.426 288.3081 198.548 287.4301 198.548 286.347z" stroke="none" fill="#17E59E" fill-rule="nonzero" />
    <path transform="matrix(1 0 0 1 0 0)"  d="M198.548 295.6931C 198.548 294.61 199.426 293.732 200.5091 293.732L200.5091 293.732L240.6924 293.732C 241.7755 293.732 242.6535 294.61 242.6535 295.6931C 242.6535 296.7761 241.7755 297.6541 240.6924 297.6541L240.6924 297.6541L200.5091 297.6541C 199.426 297.6541 198.548 296.7761 198.548 295.6931z" stroke="none" fill="#17E59E" fill-rule="nonzero" />
    <path transform="matrix(1 0 0 1 0 0)"  d="M549.974 283.483L647.132 283.483C 648.25 283.486 649.157 284.393 649.159 285.512L649.159 285.512L649.159 369.09L623.421 343.349L549.974 343.349C 548.856 343.346 547.952 342.438 547.952 341.32L547.952 341.32L547.952 285.512C 547.952 284.394 548.856 283.486 549.974 283.483z" stroke="none" fill="#FFFFFF" fill-rule="nonzero" fill-opacity="0.2431373" />
    <path transform="matrix(1 0 0 1 0 0)"  d="M638.054 301.2984C 638.054 302.6684 636.9434 303.779 635.5734 303.779L635.5734 303.779L561.5425 303.779C 560.1725 303.779 559.062 302.6684 559.062 301.2984C 559.062 299.9284 560.1725 298.8178 561.5425 298.8178L561.5425 298.8178L635.5734 298.8178C 636.9434 298.8178 638.054 299.9284 638.054 301.2984z" stroke="none" fill="#4262FF" fill-rule="nonzero" />
    <path transform="matrix(1 0 0 1 0 0)"  d="M638.048 313.1245C 638.048 314.4944 636.9374 315.605 635.5674 315.605L635.5674 315.605L570.5925 315.605C 569.2225 315.605 568.1119 314.4944 568.1119 313.1245C 568.1119 311.7545 569.2225 310.6439 570.5925 310.6439L570.5925 310.6439L635.5674 310.6439C 636.9374 310.6439 638.048 311.7545 638.048 313.1245z" stroke="none" fill="#FF9E01" fill-rule="nonzero" />
    <path transform="matrix(1 0 0 1 0 0)"  d="M638.054 324.9454C 638.054 326.3154 636.9434 327.426 635.5734 327.426L635.5734 327.426L584.7586 327.426C 583.3886 327.426 582.278 326.3154 582.278 324.9454C 582.278 323.5754 583.3886 322.4648 584.7586 322.4648L584.7586 322.4648L635.5734 322.4648C 636.9434 322.4648 638.054 323.5754 638.054 324.9454z" stroke="none" fill="#4262FF" fill-rule="nonzero" />
    <path transform="matrix(1 0 0 1 0 0)"  d="M377.411 254.54C 377.411 251.4803 379.8914 249 382.951 249L382.951 249L460.7832 249C 463.8429 249 466.3232 251.4803 466.3232 254.54L466.3232 254.54L466.3232 394.008C 466.3232 397.0677 463.8429 399.548 460.7832 399.548L460.7832 399.548L382.951 399.548C 379.8914 399.548 377.411 397.0677 377.411 394.008L377.411 394.008L377.411 254.54z" stroke="none" fill="#FFFFFF" fill-rule="nonzero" fill-opacity="0.2431373" />
    <path transform="matrix(1 0 0 1 0 0)"  d="M416.157 366.903C 416.158 360.704 411.789 355.365 405.716 354.144C 399.643 352.922 393.553 356.158 391.161 361.876C 388.769 367.594 390.74 374.207 395.871 377.68C 396.842 374.467 399.8 372.269 403.154 372.269C 406.508 372.269 409.467 374.467 410.438 377.68C 414.015 375.261 416.158 371.223 416.157 366.903z" stroke="none" fill="#17E59E" fill-rule="nonzero" />
    <path transform="matrix(1 0 0 1 0 0)"  d="M403.154 372.283C 399.804 372.281 396.847 374.472 395.871 377.68C 400.272 380.653 406.037 380.653 410.438 377.68C 409.462 374.472 406.505 372.281 403.154 372.283z" stroke="none" fill="#FFFFFF" fill-rule="nonzero" />
    <path transform="matrix(1 0 0 1 0 0)"  d="M403.154 370.771C 405.898 370.771 408.123 368.545 408.123 365.799C 408.123 363.053 405.898 360.827 403.154 360.827C 400.41 360.827 398.186 363.053 398.186 365.799C 398.186 368.545 400.41 370.771 403.154 370.771z" stroke="none" fill="#FFFFFF" fill-rule="nonzero" />
    <path transform="matrix(1 0 0 1 0 0)"  d="M416.157 331.871C 416.158 325.672 411.789 320.333 405.716 319.111C 399.643 317.89 393.553 321.125 391.161 326.843C 388.769 332.562 390.74 339.174 395.871 342.647C 396.842 339.434 399.8 337.237 403.154 337.237C 406.508 337.237 409.467 339.434 410.438 342.647C 414.016 340.23 416.16 336.191 416.157 331.871z" stroke="none" fill="#FF9E01" fill-rule="nonzero" />
    <path transform="matrix(1 0 0 1 0 0)"  d="M403.154 337.256C 399.806 337.254 396.849 339.442 395.871 342.647C 400.272 345.62 406.037 345.62 410.438 342.647C 409.46 339.442 406.503 337.254 403.154 337.256z" stroke="none" fill="#FFFFFF" fill-rule="nonzero" />
    <path transform="matrix(1 0 0 1 0 0)"  d="M403.154 335.738C 405.898 335.738 408.123 333.512 408.123 330.766C 408.123 328.02 405.898 325.794 403.154 325.794C 400.41 325.794 398.186 328.02 398.186 330.766C 398.186 333.512 400.41 335.738 403.154 335.738z" stroke="none" fill="#FFFFFF" fill-rule="nonzero" />
    <path transform="matrix(1 0 0 1 0 0)"  d="M384.504 260.851C 384.504 258.9235 386.0665 257.361 387.994 257.361L387.994 257.361L455.739 257.361C 457.6665 257.361 459.229 258.9235 459.229 260.851L459.229 260.851L459.229 261.3018C 459.229 263.2293 457.6665 264.7918 455.739 264.7918L455.739 264.7918L387.994 264.7918C 386.0665 264.7918 384.504 263.2293 384.504 261.3018L384.504 261.3018L384.504 260.851z" stroke="none" fill="#FF9E01" fill-rule="nonzero" />
    <path transform="matrix(1 0 0 1 0 0)"  d="M453.8199 366.8974C 453.8199 368.2673 452.7094 369.3779 451.3394 369.3779L451.3394 369.3779L425.431 369.3779C 424.061 369.3779 422.9504 368.2673 422.9504 366.8974C 422.9504 365.5274 424.061 364.4168 425.431 364.4168L425.431 364.4168L451.3394 364.4168C 452.7094 364.4168 453.8199 365.5274 453.8199 366.8974z" stroke="none" fill="#4262FF" fill-rule="nonzero" />
    <path transform="matrix(1 0 0 1 0 0)"  d="M416.157 296.979C 416.158 290.78 411.789 285.441 405.716 284.22C 399.643 282.999 393.553 286.234 391.161 291.952C 388.769 297.67 390.74 304.283 395.871 307.756C 396.842 304.543 399.8 302.346 403.154 302.346C 406.508 302.346 409.467 304.543 410.438 307.756C 414.016 305.339 416.16 301.3 416.157 296.979z" stroke="none" fill="#17E59E" fill-rule="nonzero" />
    <path transform="matrix(1 0 0 1 0 0)"  d="M403.154 302.349C 399.806 302.346 396.849 304.534 395.871 307.74C 400.272 310.713 406.037 310.713 410.438 307.74C 409.46 304.534 406.503 302.346 403.154 302.349z" stroke="none" fill="#FFFFFF" fill-rule="nonzero" />
    <path transform="matrix(1 0 0 1 0 0)"  d="M403.154 300.847C 405.898 300.847 408.123 298.621 408.123 295.875C 408.123 293.129 405.898 290.903 403.154 290.903C 400.41 290.903 398.186 293.129 398.186 295.875C 398.186 298.621 400.41 300.847 403.154 300.847z" stroke="none" fill="#FFFFFF" fill-rule="nonzero" />
    <path transform="matrix(1 0 0 1 0 0)"  d="M453.82 296.9794C 453.82 298.3494 452.7094 299.46 451.3394 299.46L451.3394 299.46L425.4311 299.46C 424.0611 299.46 422.9505 298.3494 422.9505 296.9794C 422.9505 295.6094 424.0611 294.4988 425.4311 294.4988L425.4311 294.4988L451.3394 294.4988C 452.7094 294.4988 453.82 295.6094 453.82 296.9794z" stroke="none" fill="#4262FF" fill-rule="nonzero" />
    <path transform="matrix(1 0 0 1 0 0)"  d="M453.82 330.7614C 453.82 332.1314 452.7094 333.242 451.3394 333.242L451.3394 333.242L425.4311 333.242C 424.0611 333.242 422.9505 332.1314 422.9505 330.7614C 422.9505 329.3914 424.0611 328.2808 425.4311 328.2808L425.4311 328.2808L451.3394 328.2808C 452.7094 328.2808 453.82 329.3914 453.82 330.7614z" stroke="none" fill="#4262FF" fill-rule="nonzero" />
    <path transform="matrix(1 0 0 1 0 0)"  d="M73.4833 342.69L188.308 342.69C 189.63 342.693 190.702 343.766 190.705 345.089L190.705 345.089L190.705 443.866L160.297 413.441L73.4833 413.441C 72.1627 413.435 71.0945 412.364 71.0916 411.042L71.0916 411.042L71.0916 345.089C 71.0945 343.768 72.1627 342.696 73.4833 342.69z" stroke="none" fill="#FFFFFF" fill-rule="nonzero" fill-opacity="0.2431373" />
    <path transform="matrix(1 0 0 1 0 0)"  d="M157.851 386.688C 162.99 386.688 167.157 382.518 167.157 377.375C 167.157 372.232 162.99 368.062 157.851 368.062C 152.711 368.062 148.545 372.232 148.545 377.375C 148.545 382.518 152.711 386.688 157.851 386.688z" stroke="none" fill="#4262FF" fill-rule="nonzero" />
    <path transform="matrix(1 0 0 1 0 0)"  d="M130.895 386.688C 136.035 386.688 140.201 382.518 140.201 377.375C 140.201 372.232 136.035 368.062 130.895 368.062C 125.756 368.062 121.589 372.232 121.589 377.375C 121.589 382.518 125.756 386.688 130.895 386.688z" stroke="none" fill="#4262FF" fill-rule="nonzero" />
    <path transform="matrix(1 0 0 1 0 0)"  d="M103.945 386.688C 109.084 386.688 113.251 382.518 113.251 377.375C 113.251 372.232 109.084 368.062 103.945 368.062C 98.8053 368.062 94.6389 372.232 94.6389 377.375C 94.6389 382.518 98.8053 386.688 103.945 386.688z" stroke="none" fill="#4262FF" fill-rule="nonzero" />
    <path transform="matrix(1 0 0 1 0 0)"  d="M703.747 650.993C 703.747 650.993 750.298 685.295 755.816 681.818C 761.333 678.34 779.097 634.035 774.993 631.987C 770.889 629.938 750.777 641.816 750.777 641.816L750.777 641.816L720.821 625.907L703.747 650.993z" stroke="none" fill="#21243D" fill-rule="nonzero" />
    <path transform="matrix(1 0 0 1 0 0)"  d="M525.803 553.304L584.215 529.222C 587.214 527.988 590.648 528.495 593.163 530.543C 597.104 533.64 603.311 538.34 609.269 542.078C 619.053 548.202 751.178 622.158 751.178 622.158L751.178 622.158L720.032 669.478C 720.032 669.478 592.38 574.739 584.574 579.102C 575.334 584.259 494.706 603.961 494.706 603.961C 494.706 603.961 457.542 611.839 474.789 545.278" stroke="none" fill="#ED7715" fill-rule="nonzero" />
    <path transform="matrix(1 0 0 1 0 0)"  d="M457.439 621.679L523.472 657.894L477.497 795.172L523.994 795.259C 523.994 795.259 565.658 638.306 563.049 632.416C 561.75 629.493 506.377 593.903 477.779 565.584C 462.217 550.158 429.826 552.185 428.315 559.063C 421.074 591.822 444.654 615.219 457.445 621.712" stroke="none" fill="#FF9E01" fill-rule="nonzero" />
    <path transform="matrix(1 0 0 1 0 0)"  d="M590.07 493.345C 588.632 493.344 587.317 492.532 586.672 491.247C 586.027 489.962 586.162 488.423 587.021 487.27L587.021 487.27L620.619 442.123C 621.431 441.033 622.763 440.459 624.113 440.616C 625.463 440.774 626.626 441.64 627.165 442.888C 627.703 444.135 627.535 445.575 626.723 446.665L626.723 446.665L593.125 491.813C 592.407 492.777 591.274 493.346 590.07 493.345z" stroke="none" fill="#21243D" fill-rule="nonzero" />
    <path transform="matrix(1 0 0 1 0 0)"  d="M525.673 404.528C 525.673 404.528 522.884 397.579 521.096 401.855C 519.307 406.131 519.596 409.978 521.52 410.206C 523.444 410.434 525.292 407.489 525.292 407.489L525.292 407.489L525.673 404.528z" stroke="none" fill="#FF9494" fill-rule="nonzero" />
    <path transform="matrix(1 0 0 1 0 0)"  d="M543.649 428.425L523.939 449.659L507.289 462.107L495.668 447.388L505.142 435.934L524.689 405.849L543.649 428.425z" stroke="none" fill="#FF9494" fill-rule="nonzero" />
    <path transform="matrix(1 0 0 1 0 0)"  d="M563.076 396.041C 563.538 400.388 559.271 403.045 558.103 407.37C 556.722 412.516 555.526 421.497 554.787 429.604C 554.51 432.658 553.504 440.824 551.047 443.731C 549.362 445.742 546.867 438.944 545.698 440.889C 542.024 447.013 532.729 453.642 530.897 453.044C 527.429 451.903 525.157 444.59 524.048 441.634C 521.869 435.81 521.031 429.57 521.596 423.377C 522.189 416.21 522.618 408.679 524.95 401.828C 526.641 396.872 529.136 389.918 531.663 385.277C 534.093 380.822 540.409 386.679 544.752 385C 551.895 382.251 557.977 386.516 561.38 392.444C 562.935 395.226 563.033 395.759 563.076 396.041z" stroke="none" fill="#FDB4B1" fill-rule="nonzero" />
    <path transform="matrix(1 0 0 1 0 0)"  d="M536.349 440.759C 537.687 441.4 539.149 441.741 540.632 441.759C 540.821 441.736 540.962 441.576 540.962 441.386C 540.962 441.197 540.821 441.037 540.632 441.014C 540.589 441.014 536.512 441.014 534.593 438.346C 532.674 435.679 533.598 433.413 533.609 433.386C 533.649 433.296 533.65 433.194 533.614 433.103C 533.577 433.011 533.505 432.939 533.414 432.902C 533.323 432.862 533.22 432.861 533.128 432.897C 533.036 432.934 532.963 433.006 532.924 433.098C 532.881 433.201 531.837 435.755 534.012 438.781C 534.619 439.62 535.421 440.299 536.349 440.759z" stroke="none" fill="#94163D" fill-rule="nonzero" />
    <path transform="matrix(1 0 0 1 0 0)"  d="M570.224 403.577C 569.741 405.099 568.94 406.501 567.876 407.69C 566.136 409.581 563.761 409.038 562.07 407.441C 559.26 404.778 558.146 400.583 555.042 398.269C 554.55 397.844 553.939 397.582 553.292 397.519C 552.406 397.492 551.628 398.062 550.867 398.513C 546.378 401.23 540.67 400.589 535.588 399.317C 534.56 399.062 533.479 398.774 532.451 399.046C 530.712 399.491 529.733 401.284 528.592 402.664C 527.45 404.045 525.222 405.088 523.95 403.816C 523.446 403.198 523.146 402.439 523.091 401.643L523.091 401.643L522.276 396.976C 521.634 393.357 521.281 388.939 524.2 386.712C 524.907 386.168 525.738 385.826 526.45 385.299C 528.826 383.528 529.348 380.11 531.451 378.013C 533.843 375.627 537.871 375.328 541.061 375.459C 541.936 375.417 542.798 375.678 543.502 376.198C 544.263 376.893 544.442 378.105 545.285 378.703C 545.921 379.099 546.706 379.174 547.405 378.904C 549.313 378.268 550.721 376.502 552.417 375.497C 555.982 373.383 557.999 375.442 560.108 378.083C 561.782 380.158 563.577 382.132 565.484 383.995C 567.789 386.261 570.257 387.57 570.757 391.086C 571.295 394.84 571.556 399.633 570.224 403.577z" stroke="none" fill="#21243D" fill-rule="nonzero" />
    <path transform="matrix(1 0 0 1 0 0)"  d="M547.562 406.631L547.66 406.669C 547.79 406.708 547.928 406.636 547.97 406.506C 547.998 406.444 547.998 406.373 547.97 406.311C 548.512 406.131 549.071 406.008 549.639 405.941C 551.113 405.672 552.573 406.476 553.134 407.865C 553.157 407.959 553.232 408.032 553.328 408.051C 553.423 408.07 553.521 408.032 553.579 407.954C 553.636 407.875 553.643 407.77 553.596 407.685C 552.934 406.094 551.263 405.169 549.563 405.452C 547.551 405.767 547.388 405.995 547.35 406.272C 547.342 406.424 547.425 406.565 547.562 406.631z" stroke="none" fill="#35393A" fill-rule="nonzero" />
    <path transform="matrix(1 0 0 1 0 0)"  d="M550.22 410.712C 550.414 410.103 550.119 409.445 549.535 409.185C 548.508 408.739 547.731 409.598 547.758 410.511C 547.785 411.423 548.997 412.315 549.497 412.141C 549.998 411.967 550.72 411.239 550.22 410.712z" stroke="none" fill="#35393A" fill-rule="nonzero" />
    <path transform="matrix(1 0 0 1 0 0)"  d="M597.197 500.137C 597.197 500.137 612.58 492.53 622.016 484.336C 631.452 476.142 630.577 470.703 627.805 471.377L627.805 471.377L625.038 472.045C 625.038 472.045 628.099 469.078 625.892 468.323C 623.685 467.568 622.668 467.85 622.668 467.85C 622.668 467.85 625.12 464.813 622.342 464.286L622.342 464.286L619.564 463.743C 619.564 463.743 621.57 458.51 617.629 460.542C 613.688 462.575 596.566 476.3 594.604 474.001C 592.641 471.703 593.468 467.378 597.164 464.628C 600.86 461.879 600.545 455.457 596.077 458.157C 591.609 460.858 587.842 464.074 586.679 468.894C 585.515 473.713 586.537 482.45 586.537 482.45L586.537 482.45L559.87 500.158L568.431 519.176L597.197 500.137z" stroke="none" fill="#FDB4B1" fill-rule="nonzero" />
    <path transform="matrix(1 0 0 1 0 0)"  d="M512.59 456.63C 519.852 460.945 519.716 475.257 520.091 482.63C 521.053 501.816 515.612 520.355 511.209 538.872C 507.149 555.977 504.904 563.959 504.882 564.04C 502.74 570.849 446.416 558.352 431.261 561.791C 430.472 561.962 429.65 561.735 429.061 561.184C 428.472 560.633 428.191 559.828 428.309 559.031C 431.027 540.312 440.632 478.223 451.335 462.357C 463.984 443.612 499.044 438.113 499.044 438.113C 499.044 438.113 502.316 450.529 512.59 456.63z" stroke="none" fill="#274DD8" fill-rule="nonzero" />
    <path transform="matrix(1 0 0 1 0 0)"  d="M496.348 451.132C 496.348 451.132 516.128 522.621 522.586 523.398C 529.043 524.175 571.355 490.433 573.893 489.71C 576.432 488.987 600.148 517.247 593.674 519.013C 587.2 520.779 516.329 572.185 506.197 569.996C 496.065 567.806 472.952 498.04 470.669 486.488C 468.386 474.936 487.053 433.489 496.348 451.132z" stroke="none" fill="#4262FF" fill-rule="nonzero" />
    <path transform="matrix(1 0 0 1 0 0)"  d="M262.955 396.15C 262.955 396.15 263.211 372.47 289.9 381.36C 308.512 387.559 311.969 402.8 333.962 454.413C 355.954 506.027 403.539 484.048 403.539 484.048C 403.539 484.048 420.003 493.774 403.539 507.548C 385.204 522.892 398.793 531.053 383.111 533.988C 367.429 536.922 357.373 529.233 357.373 529.233L357.373 529.233L296.412 478.413" stroke="none" fill="#21243D" fill-rule="nonzero" />
    <path transform="matrix(1 0 0 1 0 0)"  d="M290.612 417.417C 290.612 417.417 293.167 410.353 295.091 414.591C 297.015 418.829 296.868 422.655 294.955 422.948C 293.042 423.241 291.09 420.356 291.09 420.356L291.09 420.356L290.612 417.417z" stroke="none" fill="#FF9494" fill-rule="nonzero" />
    <path transform="matrix(1 0 0 1 0 0)"  d="M268.815 431.891L289.112 452.555L305.843 464.721L315.774 450.643L305.924 439.504L285.127 410.315L268.815 431.891z" stroke="none" fill="#FF9494" fill-rule="nonzero" />
    <path transform="matrix(1 0 0 1 0 0)"  d="M259.765 422.068C 260.738 426.105 263.461 431.093 263.635 437.624C 263.7 440.085 262.988 442.427 263.939 446.567C 264.396 448.572 268.38 446.535 269.375 447.98C 272.468 452.533 280.866 456.804 282.643 456.081C 286.008 454.718 288.623 448.475 289.889 445.91C 292.266 441.183 293.472 435.954 293.406 430.663C 293.308 424.866 293.406 418.759 291.618 413.439C 290.335 409.592 288.422 404.202 286.318 400.725C 284.301 397.378 277.92 402.963 273.903 402.137C 267.304 400.774 264.276 404.142 260.661 409.424C 258.998 411.847 258.96 418.672 259.765 422.068z" stroke="none" fill="#FDB4B1" fill-rule="nonzero" />
    <path transform="matrix(1 0 0 1 0 0)"  d="M276.533 443.97C 275.219 444.657 273.77 445.047 272.288 445.111C 272.084 445.111 271.918 444.946 271.918 444.742C 271.918 444.538 272.084 444.372 272.288 444.372C 272.326 444.372 276.403 444.253 278.229 441.498C 280.056 438.743 279.056 436.532 279.045 436.51C 278.988 436.39 279.001 436.248 279.077 436.139C 279.153 436.03 279.281 435.97 279.414 435.982C 279.546 435.993 279.662 436.074 279.719 436.195C 279.768 436.298 280.904 438.819 278.849 441.911C 278.257 442.776 277.462 443.483 276.533 443.97z" stroke="none" fill="#94163D" fill-rule="nonzero" />
    <path transform="matrix(1 0 0 1 0 0)"  d="M268.94 422.578L268.847 422.622C 268.752 422.654 268.646 422.626 268.579 422.55C 268.512 422.474 268.498 422.365 268.543 422.274C 267.995 422.116 267.432 422.013 266.863 421.964C 265.382 421.749 263.952 422.598 263.433 424.002C 263.414 424.064 263.37 424.116 263.311 424.145C 263.253 424.175 263.186 424.18 263.124 424.16C 262.993 424.116 262.923 423.975 262.966 423.844C 263.571 422.229 265.212 421.244 266.923 421.47C 268.945 421.714 269.136 421.964 269.163 422.214C 269.172 422.37 269.083 422.515 268.94 422.578z" stroke="none" fill="#35393A" fill-rule="nonzero" />
    <path transform="matrix(1 0 0 1 0 0)"  d="M266.418 426.751C 266.207 426.149 266.48 425.484 267.054 425.203C 268.065 424.725 268.869 425.556 268.875 426.469C 268.88 427.382 267.695 428.311 267.195 428.164C 266.695 428.017 265.939 427.295 266.418 426.751z" stroke="none" fill="#35393A" fill-rule="nonzero" />
    <path transform="matrix(1 0 0 1 0 0)"  d="M280.066 432.962C 282.708 432.962 284.85 430.821 284.85 428.18C 284.85 425.539 282.708 423.399 280.066 423.399C 277.425 423.399 275.283 425.539 275.283 428.18C 275.283 430.821 277.425 432.962 280.066 432.962z" stroke="none" fill="#FE5923" fill-rule="nonzero" fill-opacity="0.4156863" />
    <path transform="matrix(1 0 0 1 0 0)"  d="M294.607 438.189C 295.281 439.721 296.102 440.526 296.912 440.526C 296.963 440.527 297.014 440.524 297.064 440.515C 298.928 440.254 299.407 435.847 298.863 431.821C 298.646 429.889 298.15 427.998 297.39 426.208C 296.64 424.573 295.792 423.768 294.933 423.883C 293.069 424.143 292.618 428.55 293.134 432.576C 293.351 434.508 293.848 436.399 294.607 438.189zM295.053 424.687L295.097 424.687C 295.417 424.687 296.015 425.187 296.684 426.545C 297.406 428.262 297.878 430.073 298.086 431.924C 298.69 436.57 297.858 439.575 296.999 439.689C 296.651 439.732 296.032 439.27 295.368 437.83C 294.647 436.113 294.174 434.302 293.966 432.451C 293.363 427.805 294.194 424.801 295.053 424.687z" stroke="none" fill="#FCE63D" fill-rule="nonzero" />
    <path transform="matrix(1 0 0 1 0 0)"  d="M298.053 459.054C 290.938 463.613 287.948 484.912 287.828 492.291C 287.508 511.498 305.484 526.854 310.512 545.208C 315.148 562.166 317.806 560.59 317.834 560.672C 320.551 568.404 367.646 533.352 369.337 543.393C 369.337 543.366 354.421 496.377 341.147 478.071C 327.873 459.766 311.887 445.334 311.887 445.334C 311.887 445.334 308.109 452.61 298.053 459.054z" stroke="none" fill="#17E59E" fill-rule="nonzero" />
    <path transform="matrix(1 0 0 1 0 0)"  d="M203.777 465.281C 203.777 465.281 195.079 452.566 188.524 453.191C 182.496 453.846 176.516 454.883 170.619 456.294C 165.547 457.435 155.671 461.434 166.439 461.678C 170.961 461.776 175.478 461.787 180.001 461.798C 180.544 466.308 182.594 470.426 185.23 474.067C 190.378 481.179 187.997 477.147 197.031 480.973C 206.065 484.798 216.599 489.699 216.599 489.699L216.599 489.699L219.132 480.88L203.777 465.281z" stroke="none" fill="#FF9494" fill-rule="nonzero" />
    <path transform="matrix(1 0 0 1 0 0)"  d="M298.021 465.759C 287.03 478.256 260.379 507.95 255.622 507.548C 249.643 507.043 217.572 475.909 215.436 474.768C 213.3 473.627 186.42 494.785 191.959 497.588C 197.498 500.392 244.631 538.628 254.204 538.546C 263.776 538.465 311.501 498.751 315.752 488.715C 320.003 478.68 314.502 446.073 302.744 460.32C 302.744 460.32 300.929 462.428 297.999 465.753" stroke="none" fill="#18C482" fill-rule="nonzero" />
    <path transform="matrix(1 0 0 1 0 0)"  d="M252.263 415.162C 252.316 416.141 252.622 417.09 253.149 417.917C 253.816 418.994 255.055 419.579 256.312 419.411C 258.345 419.096 259.769 417.058 261.264 415.553C 263.308 413.499 265.325 411.369 267.597 409.734C 273.032 405.811 278.142 407.826 283.42 413.217C 284.964 414.792 286.513 416.504 288.312 417.286C 288.682 417.51 289.14 417.532 289.53 417.346C 290.133 416.944 290.106 415.803 290.302 414.928C 290.796 412.717 292.905 411.994 293.677 409.962C 294.406 408.038 293.487 405.072 291.791 404.115C 291.283 403.907 290.786 403.673 290.302 403.414C 288.127 401.947 288.345 397.981 287.807 395.52C 287.745 395.154 287.622 394.801 287.442 394.476C 286.942 393.694 286.018 393.824 285.431 394.324C 284.844 394.824 284.42 395.606 283.801 395.992C 282.268 396.921 280.3 395.264 278.577 395.536C 277.49 395.71 276.604 396.655 275.767 397.524C 274.718 398.611 273.494 398.296 272.206 397.4C 271.201 396.693 270.271 395.769 269.222 395.188C 268.367 394.714 267.378 394.538 266.412 394.688C 262.797 395.313 259.655 398.888 257.302 401.496C 253.953 405.191 251.871 410.141 252.263 415.162z" stroke="none" fill="#21243D" fill-rule="nonzero" />
    <path transform="matrix(1 0 0 1 0 0)"  d="M260.226 408.478C 260.226 408.478 260.226 414.194 264.575 415.319C 268.923 416.444 271.348 412.57 274.419 415.232C 277.49 417.895 279.686 419.324 284.051 419.916C 288.416 420.508 292.297 414.2 292.297 414.2L292.297 414.2L294.786 410.82L294.786 408.228L272.565 400.236L260.226 408.478z" stroke="none" fill="#21243D" fill-rule="nonzero" />
    <path transform="matrix(1 0 0 1 0 0)"  d="M185.235 483.548C 184.468 483.547 183.72 483.314 183.088 482.88L183.088 482.88L146.125 457.511C 145.005 456.741 144.38 455.432 144.487 454.077C 144.593 452.722 145.415 451.527 146.642 450.942C 147.869 450.357 149.315 450.471 150.436 451.24L150.436 451.24L187.398 476.609C 188.776 477.555 189.375 479.288 188.875 480.882C 188.376 482.475 186.895 483.557 185.224 483.548L185.224 483.548L185.235 483.548z" stroke="none" fill="#21243D" fill-rule="nonzero" />
    <path transform="matrix(1 0 0 1 0 0)"  d="M122.024 679.742C 122.024 679.742 92.2631 702.02 87.5123 699.303C 82.7615 696.586 60.2196 668.397 63.2854 666.479C 66.3511 664.561 83.5877 673.869 83.5877 673.869L83.5877 673.869L105.934 659.002L122.024 679.742z" stroke="none" fill="#21243D" fill-rule="nonzero" />
    <path transform="matrix(1 0 0 1 0 0)"  d="M132.368 609.122C 132.368 609.122 97.1553 630.509 92.2903 627.493C 87.4254 624.478 66.15 594.707 69.7376 592.882C 73.3252 591.056 91.0456 601.358 91.0456 601.358L91.0456 601.358L117.235 587.231L132.368 609.122z" stroke="none" fill="#21243D" fill-rule="nonzero" />
    <path transform="matrix(1 0 0 1 0 0)"  d="M364.178 534.569C 364.178 534.569 330.77 560.791 322.274 555.733C 292.378 537.954 249.708 508.906 239.391 514.112C 226.139 520.768 101.188 591.425 101.188 591.425L101.188 591.425L111.913 628.879C 111.913 628.879 235.917 544.224 244.441 549.115C 252.964 554.005 325.536 601.445 346.985 595.446C 393.183 582.525 369.147 537.585 364.178 534.569z" stroke="none" fill="#FE5923" fill-rule="nonzero" />
    <path transform="matrix(1 0 0 1 0 0)"  d="M361.319 537.633C 361.319 537.633 331.825 572.37 321.372 569.854C 284.622 561.008 231.27 544.86 221.432 552.755C 208.794 562.91 91.6108 666.272 91.6108 666.272L91.6108 666.272L112.598 699.52C 112.598 699.52 225.242 582.862 235.668 585.215C 246.093 587.568 336.408 613.181 358.036 601.374C 404.68 575.94 367.44 539.166 361.319 537.633z" stroke="none" fill="#ED7715" fill-rule="nonzero" />
    <path transform="matrix(1 0 0 1 0 0)"  d="M317.1 558.052C 317.1 558.052 314.561 566.8 319.165 569.115C 323.769 571.43 369.233 547.533 369.337 544.664C 369.44 541.795 366.255 536.628 366.255 536.628C 366.255 536.628 334.999 554.472 329.254 555.645C 323.508 556.819 317.1 558.052 317.1 558.052z" stroke="none" fill="#21243D" fill-rule="nonzero" />
    <path transform="matrix(1 0 0 1 0 0)"  d="M323.714 567.898L320.41 569.631C 318.464 570.647 315.914 568.784 314.746 565.486L314.746 565.486L314.381 564.453C 313.207 561.155 313.838 557.623 315.795 556.607L315.795 556.607L319.094 554.879C 321.045 553.858 323.595 555.722 324.764 559.02L324.764 559.02L325.128 560.052C 326.296 563.35 325.66 566.882 323.714 567.898z" stroke="none" fill="#FCE63D" fill-rule="nonzero" />
    <path transform="matrix(1 0 0 1 0 0)"  d="M354.106 518.442L353.775 518.04C 353.716 517.965 353.67 517.88 353.639 517.79C 352.28 515.073 324.83 467.112 316.095 460.195C 312.17 457.098 307.153 455.75 302.668 456.598C 298.901 457.31 295.667 459.543 294.232 462.428C 293.124 464.686 293.181 467.342 294.384 469.551C 294.514 469.812 294.494 470.123 294.332 470.365C 294.17 470.607 293.892 470.745 293.601 470.726C 293.31 470.707 293.051 470.535 292.922 470.274C 291.482 467.362 291.427 464.395 292.77 461.7C 294.433 458.369 298.108 455.799 302.369 454.995C 307.311 454.066 312.817 455.538 317.106 458.912C 320.97 461.972 328.521 472.676 339.626 490.731C 344.072 497.98 347.997 504.657 350.497 508.982C 355.302 517.258 355.291 517.307 355.204 517.676L355.204 517.676L355.09 518.171L354.106 518.442z" stroke="none" fill="#FCE63D" fill-rule="nonzero" />
    <path transform="matrix(1 0 0 1 0 0)"  d="M331.978 530.298C 331.737 530.298 331.509 530.193 331.353 530.01C 331.2 529.831 316.002 511.792 307.93 499.039C 307.751 498.793 307.724 498.468 307.859 498.196C 307.994 497.924 308.27 497.75 308.574 497.744C 308.878 497.738 309.16 497.903 309.305 498.17C 317.323 510.83 332.451 528.777 332.603 528.956C 332.809 529.199 332.854 529.539 332.72 529.827C 332.586 530.115 332.296 530.299 331.978 530.298z" stroke="none" fill="#FCE63D" fill-rule="nonzero" />
    <path transform="matrix(1 0 0 1 0 0)"  d="M317.245 532.242C 315.587 529.372 316.571 525.701 319.442 524.045L319.442 524.045L359.366 501.003C 362.236 499.347 365.904 500.33 367.561 503.199L367.561 503.199L380.076 524.867C 381.734 527.737 380.75 531.408 377.879 533.064L377.879 533.064L337.955 556.106C 335.085 557.762 331.417 556.779 329.76 553.91L329.76 553.91L317.245 532.242z" stroke="none" fill="#FCE63D" fill-rule="nonzero" />
    <path transform="matrix(1 0 0 1 0 0)"  d="M604.98 440.746C 604.537 440.744 604.139 440.473 603.975 440.062C 603.844 439.73 600.807 431.989 603.877 427.225C 605.274 425.052 607.648 423.873 610.941 423.716C 622.809 423.145 624.526 422.738 628.107 417.039C 629.5 414.696 631.917 413.145 634.628 412.856C 639.236 412.346 644.817 415.029 649.93 420.179C 650.204 420.455 650.31 420.855 650.208 421.23C 650.106 421.605 649.812 421.897 649.436 421.996C 649.061 422.095 648.661 421.987 648.387 421.711C 643.812 417.088 638.753 414.589 634.867 415.018C 632.806 415.22 630.968 416.401 629.928 418.191C 625.7 424.933 622.766 425.324 611.028 425.883C 608.442 426.008 606.681 426.828 605.681 428.398C 603.219 432.201 605.942 439.187 605.969 439.263C 606.188 439.82 605.916 440.448 605.36 440.67C 605.24 440.719 605.111 440.745 604.98 440.746z" stroke="none" fill="#FFFFFF" fill-rule="nonzero" />
    <path transform="matrix(1 0 0 1 0 0)"  d="M595.829 424.221C 595.265 424.223 594.793 423.794 594.742 423.232C 594.715 422.966 594.231 416.572 601.991 411.009C 609.751 405.447 619.603 410.711 620.016 410.939C 620.541 411.23 620.731 411.891 620.44 412.416C 620.149 412.941 619.487 413.131 618.962 412.84C 618.875 412.791 609.941 407.984 603.257 412.775C 596.573 417.566 596.899 422.982 596.905 423.037C 596.932 423.324 596.844 423.611 596.659 423.833C 596.475 424.055 596.209 424.195 595.921 424.221L595.921 424.221L595.829 424.221z" stroke="none" fill="#FFFFFF" fill-rule="nonzero" />
    <path transform="matrix(1 0 0 1 0 0)"  d="M589.83 418.191C 589.496 418.193 589.179 418.041 588.972 417.778C 588.847 417.61 585.864 413.688 588.526 406.914C 591.189 400.139 599.644 399.444 600.003 399.422C 600.603 399.38 601.124 399.833 601.166 400.433C 601.208 401.033 600.755 401.553 600.155 401.595C 600.036 401.595 592.716 402.204 590.548 407.718C 588.336 413.329 590.662 416.409 590.684 416.409C 590.862 416.636 590.942 416.925 590.908 417.211C 590.873 417.497 590.726 417.758 590.499 417.936C 590.311 418.094 590.076 418.184 589.83 418.191z" stroke="none" fill="#FFFFFF" fill-rule="nonzero" />
    <path transform="matrix(1 0 0 1 0 0)"  d="M205.372 787.085C 216.697 790.714 228.853 792.518 242.036 792.518C 254.784 792.518 268.483 790.85 283.356 787.482L283.356 787.482L286.073 786.863L286.223 786.829C 293.425 785.197 301.229 783.43 309.032 781.197C 311.673 782.327 314.232 783.266 316.498 784.021C 329.198 788.297 344.076 790.204 361.976 789.926C 383.831 789.59 407.54 785.048 434.466 776.041C 468.238 764.715 502.342 748.88 538.718 727.693C 565.143 712.277 590.786 694.567 615.582 677.439C 620.444 674.074 625.305 670.723 630.167 667.384C 630.515 667.177 630.719 666.793 630.696 666.388C 630.674 665.984 630.427 665.626 630.058 665.459C 629.689 665.293 629.257 665.346 628.939 665.596C 624.07 668.943 619.206 672.294 614.348 675.652C 589.585 692.758 563.975 710.446 537.62 725.814C 501.375 746.951 467.407 762.7 433.776 773.955C 407.046 782.892 383.571 787.395 361.943 787.726C 344.293 788.003 329.649 786.108 317.188 781.935C 315.689 781.436 314.058 780.854 312.363 780.186C 326.068 776.003 339.528 770.261 349.499 761.173C 353.249 757.756 355.281 753.839 355.373 749.847C 355.466 746.022 353.743 742.23 350.407 738.884C 341.375 729.861 322.112 730.133 308.565 734.962C 295.854 739.503 288.019 747.56 287.068 757.066C 286.024 767.551 295.974 774.993 305.94 779.757C 298.963 781.669 292.029 783.239 285.584 784.695L285.584 784.695L282.867 785.32C 253.061 792.078 227.934 791.991 206.046 785.016C 187.065 778.964 171.236 767.181 160.281 750.939C 142.941 725.254 136.224 688.271 160.281 663.559C 181.756 641.488 214.784 636.245 232.553 635.083C 237.524 634.756 242.508 634.688 247.486 634.882C 247.874 634.896 248.241 634.703 248.448 634.374C 248.654 634.045 248.67 633.631 248.488 633.287C 248.307 632.944 247.956 632.723 247.568 632.709C 242.516 632.515 237.457 632.584 232.412 632.915C 214.328 634.1 180.707 639.456 158.721 662.044C 133.806 687.63 140.642 725.738 158.466 752.155C 169.703 768.805 185.924 780.882 205.372 787.085zM309.314 737.037C 315.236 734.939 321.47 733.861 327.752 733.848L327.752 733.848L327.752 733.843C 336.62 733.843 344.559 736.119 348.858 740.438C 351.781 743.349 353.281 746.593 353.205 749.814C 353.129 753.209 351.341 756.583 348.043 759.592C 337.756 768.968 323.513 774.721 309.173 778.877C 299.125 774.488 288.247 767.355 289.246 757.311C 290.11 748.668 297.425 741.28 309.314 737.037z" stroke="none" fill="#FFFFFF" fill-rule="nonzero" />
</g>
</svg>